<svg xmlns="http://www.w3.org/2000/svg" width="175" height="173" viewBox="0 0 174 173" fill="rgb(0%,0%,0%)" xmlns:v="https://vecta.io/nano"><path d="M105.906 9.691c-2.586 2.723-6.762 19.492-5.395 21.625.305.367.609 2.43.836 4.563.379 4.336.684 5.59 1.52 5.59.305 0 .605-1.766.605-3.824 0-2.133.23-5.594.531-7.578.531-3.453.531-3.527-.531-1.836-1.441 2.426-1.441.953.152-4.637 1.52-5.59 2.281-6.766 3.723-5.59s1.367 8.238-.152 16.918c-1.289 6.914-1.062 10.078.457 9.121.383-.223 1.598.441 2.66 1.617 2.125 2.355 2.43 3.531.758 2.871-1.141-.367-1.672.66-.531 1.176.836.367 3.645 6.473 4.332 9.344.301 1.32 1.215 3.086 1.973 3.82s2.281 3.164 3.344 5.223l1.824 3.898-2.207-2.57c-1.289-1.398-2.277-2.945-2.277-3.461s-.305-.957-.684-.957c-.609 0-1.672 4.27-2.051 8.238-.531 6.328-1.973 9.93-5.543 14.199-2.055 2.426-4.715 6.031-5.93 8.09l-2.199 3.676-5.93.441c-5.09.297-6.152.59-7.367 2.211-.758.953-1.441 2.059-1.441 2.352 0 1.984 10.863 8.605 14.129 8.605.609 0 .914.367.684.738-1.062 1.688 7.672-.297 12.156-2.652 5.316-2.867 5.238-3.016-.383-.953-4.785 1.766-11.926 1.617-15.953-.441-3.191-1.621-7.594-5.445-7.594-6.695s2.051-1.395 2.43-.145c.305.734 1.063.586 3.34-.297 4.484-1.84 7.902-2.352 7.98-1.176.074 1.324 5.012 5.219 6 4.633 1.367-.809.836-2.5-1.898-5.441-1.445-1.547-2.66-3.164-2.66-3.605s2.203-3.457 4.863-6.691c4.633-5.742 4.863-6.254 6.152-12.949.762-3.898 1.672-7.207 1.898-7.352.688-.441 3.723 3.969 6.078 8.824.988 1.988 2.434 4.266 3.191 5s1.367 2.059 1.293 2.945v1.617l-.687-1.691c-.988-2.281-1.293-1.988-.91.734.227 1.324.836 2.723 1.367 3.016 1.445.813 1.445 5.664 0 5.664-.531 0-1.215.586-1.516 1.25-.234.734-1.598 2.871-3.117 4.781-2.965 3.898-2.965 4.633 0 1.547l1.898-2.059-.91 2.352c-.762 2.059-.684 2.793.758 5.59 2.051 4.047 2.129 7.5.152 14.344-2.281 7.941-1.824 7.871 1.898-.074 9.27-19.859 11.699-30.523 9.422-41.117-1.672-7.578-9.801-22.141-15.727-28.172-12.988-13.242-13.598-14.27-4.328-7.723 5.012 3.531 6.074 4.117 5.391 3.016-.301-.516-2.352-2.207-4.48-3.898-5.852-4.488-5.926-4.562-4.559-11.328 1.746-8.824 1.063-15.816-1.977-21.035-2.961-5.078-3.34-5.371-4.859-3.68zm9.648 44.281c.453 2.133.375 2.355-.305 1.25-.535-.734-1.215-2.43-1.598-3.68-.527-1.984-.527-2.129.383-1.25.609.59 1.289 2.281 1.52 3.68zm10.406 10.887c.453.586 1.293 2.426 1.898 4.047.531 1.691 2.203 5.883 3.801 9.34 2.352 5.293 2.883 7.281 3.188 12.871.152 3.676-.074 7.723-.531 9.195-.684 2.207-.758 1.766-.379-2.941.457-6.547-.984-12.141-5.699-21.699-4.559-9.344-6.988-16.918-4.254-13.242a48.54 48.54 0 0 0 1.977 2.43zm3.723 33.98c0 1.18.379 2.207.758 2.207.457 0 .762.297.762.738 0 1.324-1.445.734-2.734-1.105-1.215-1.84-.988-4.047.453-4.047.383 0 .762.957.762 2.207zM81.898 11.016c-2.203 2.648-3.191 6.77-3.801 15.008l-.453 6.984-3.418.664c-7.977 1.473-19.223 4.266-22.488 5.664-4.937 1.984-12.078 7.063-16.406 11.547-6.004 6.254-14.055 18.684-15.879 24.641-.836 2.941.383 6.293-.602 7.547-2.359 3.012-3.117 7.059-1.824 10.074 1.367 3.16 1.359 6.137 4.094 7.168 1.98.809 2.207 1.25 2.207 4.34 0 10.738 5.09 23.535 12.609 31.555 6.762 7.281 20.281 15.227 31.832 18.758 6.758 2.059 22.637 4.559 24.535 3.82 1.371-.512.531-1.543-1.746-2.055-.91-.223-.457-.367 1.219-.441 3.266-.074 12.078-2.871 12.078-3.828 0-.883-.152-.883-4.711.957-3.418 1.398-5.469 1.621-13.902 1.621-10.332 0-10.715-.074-24.465-5.004-6-2.133-15.039-8.164-21.27-14.121-7.367-7.062-9.953-11.695-12.836-23.172-2.965-12.137-2.891-11.324-1.52-10.297.684.59 1.215 1.473 1.215 1.984 0 .59.305 1.617.684 2.355.379.66 1.441 3.973 2.277 7.281.914 3.383 2.277 7.504 3.117 9.195 5.316 10.664 20.281 22.359 34.941 27.285 11.32 3.828 19.449 4.121 27.73 1.18 2.129-.809 4.559-1.398 5.547-1.398s1.52-.293 1.289-.734c-.227-.371-1.594-.738-2.887-.738-2.73 0-16.559-3.453-17.242-4.262-.227-.297-2.051-.957-4.102-1.473s-5.699-1.691-7.98-2.574l-4.254-1.621-.227-31.48-.152-31.406h-2.355c-1.289 0-2.887-.293-3.57-.664-3.035-1.469-5.316-1.543-5.699-.293-.301 1.25-.375 1.25-.453 0-.078-1.547-1.598-1.691-1.598-.148 0 .883-.305.813-1.441-.293-.758-.734-2.961-1.547-4.863-1.84-1.973-.293-3.797-.883-4.023-1.32-.535-.738 4.785-.371 8.355.66.91.219 1.293.074 1.063-.59-.227-.586-.684-1.027-1.062-1.027-3.117-.219-7.824-1.324-7.52-1.84.227-.293 2.277-.145 4.559.367 2.352.516 4.402.664 4.555.297.23-.297-.836-.809-2.43-1.031-1.594-.293-3.723-.734-4.785-1.105-1.52-.512-1.598-.586-.379-.66 1.746 0 11.09 1.914 9.723 2.059-.535.074-.762.516-.535 1.105s.078 1.25-.379 1.543c-1.898 1.102-.453 1.691 5.32 1.984 3.797.223 6.379.734 6.758 1.25.305.59.762-.734 1.141-3.234.23-2.277.379-4.266.23-4.34-.535-.441-11.02-2.797-13.902-3.09-1.672-.223-4.406-.664-6.078-1.031-3.797-.883-4.937-.883-4.937-.145s10.254 3.09 13.75 3.09c1.441.074 4.48.516 6.758 1.102 3.344.883 3.574 1.031 1.145.738-1.676-.223-6.305-.738-10.336-1.105-3.949-.367-8.129-1.031-9.187-1.398-1.902-.66-1.902-.66-2.434 4.488-.227 2.867-.379 5.367-.227 5.441.68.664 20.508 3.828 21.648 3.531.988-.367 1.066-.293.23.297s-.684.809.605 1.25c1.75.516 2.203 1.836.535 1.836-.535 0-2.66-.734-4.637-1.543-2.504-1.102-4.559-1.473-6.609-1.176-1.824.219-3.797 0-5.012-.664-2.281-1.176-4.711-1.324-4.711-.367 0 .883 6.457 2.504 8.129 1.988.758-.223 4.18.367 7.445 1.324l6.074 1.688.152 11.477.152 11.398-3.57-1.324a121.58 121.58 0 0 0-7.898-2.57c-2.434-.664-4.41-1.473-4.41-1.914 0-.367-.453-.66-1.062-.66-1.293 0-2.277-1.18-1.367-1.766.305-.148 2.66.586 5.164 1.766 5.02 2.352 11.551 3.75 10.641 2.352-.305-.512-1.066-.883-1.676-.883-1.746 0-11.09-3.676-12.609-4.93-1.062-.957-1.367-.883-2.051.441-.453.813-.836 1.914-.836 2.504 0 1.027 3.344 3.68 4.941 3.898.453 0 .91.148 1.137.219.227.148 3.266.957 6.836 1.766l6.457 1.617v2.723c.078 1.84-.301 2.797-.91 2.797-.531 0-.988-.293-.988-.664 0-.809-10.406-3.973-11.621-3.531-.457.223-.23.441.605.441 1.293.074 1.367.223.379.883-.91.664-.836.738.609.441.91-.219 1.52-.145 1.293.223-.227.293.305.734 1.137.957s1.676.07 1.902-.297c.305-.367.984-.367 1.746 0 .684.367 2.203 1.031 3.418 1.621 2.203 1.027 2.887 2.574.758 1.836-1.137-.367-1.137-.293.078.664 1.293.953 1.367 1.102.227 1.102-1.363 0-15.727-3.602-16.637-4.191-.379-.148-.605 0-.605.441s1.441 1.105 3.266 1.547l6.988 1.836c2.125.586 4.637 1.102 5.695 1.25 1.445.145 1.902.66 2.055 2.207.074 1.766-.152 2.059-1.75 2.059-1.062 0-2.656-.367-3.57-.809-1.137-.66-1.668-.66-1.895-.074-.156.441-.762.59-1.371.367-.531-.219-.836-.734-.531-1.176s0-.59-.762-.293c-.605.219-3.035-.441-5.238-1.473-5.395-2.574-3.875-2.793 3.57-.59 3.871 1.105 6.305 1.547 6.758 1.105.535-.516.23-.738-.758-.738-1.668 0-10.258-2.57-12.457-3.672-1.672-.883-1.672-1.18-1.672 8.383 0 5.441.227 5.809 4.559 6.691 3.492.734 3.039-.66-.609-1.766-3.191-.883-4.332-2.426-1.293-1.762 1.371.293 1.52.219.531-.516s-.91-.809.23-.441c.758.223 1.594.441 1.746.441.227 0 .152.367-.074.809-.305.441-.078.66.457.586.605-.07 2.051.223 3.188.664 1.219.512 2.508.883 2.887.883.457 0 .609.293.305.66-.227.367 0 .957.457 1.25.609.297.684.223.379-.293s-.23-.883.23-.883c.379 0 .984.293 1.215.734.227.367.836.738 1.289.738 1.215 0-2.582-2.648-4.711-3.312-2.734-.809-10.328-5.734-9.344-6.031.457-.145 2.281.371 3.949 1.254 1.75.809 5.09 1.617 7.523 1.84 2.887.219 3.875.07 2.813-.371-.84-.367-2.508-.66-3.727-.66-2.43-.074-11.09-3.605-11.09-4.562s.383-.883 4.785 1.176c2.129 1.031 5.316 1.988 6.992 2.137 7.824.734 7.973.953 7.973 11.18 0 7.133-.227 7.648-3.949 7.648-1.668 0-10.254-4.34-14.055-7.133-1.363-.957-2.504-2.43-2.504-3.238 0-.738-.305-1.398-.762-1.398s-.758-2.207-.758-5.074c0-3.973-.305-5.148-1.215-5.52-1.75-.66-2.129-.512-1.215.516.832.957 2.578 11.625 2.051 12.211-.762.664-3.727-2.723-5.621-6.543-3.27-6.254-6.766-19.863-5.168-19.863.379 0 1.594.883 2.582 1.984 1.293 1.254 2.051 1.621 2.43 1.105.383-.59 1.445-.074 3.344 1.398l2.813 2.207v-3.68c0-3.016-.23-3.602-1.141-3.309-.609.293-1.141.074-1.141-.367s-.609-.809-1.367-.809-2.051-.516-2.887-1.102c-1.289-.957-1.141-1.031 2.355-.59 2.129.219 4.027.809 4.328 1.25.383.441.609.074.609-.883 0-1.398-.379-1.617-2.734-1.617-1.594 0-2.504-.297-2.203-.738s-.836-.824-2.965-.734c-7.375.313-2.125-2.379-4.027-9.512-.844-3.16.879-6.672 1.109-6.965.836-1.324.336-1.324 4.742-.883 4.105.441 12.383 3.234 10.105 3.309-.531.074-.988.516-.988 1.105s-.457 1.25-.91 1.398c-.531.219-.305.441.531.512l1.52.074-1.52.664c-1.293.516-1.293.66-.152.66.684.074 1.289.441 1.289.809 0 .813-.836.664-7.973-1.176-2.051-.516-3.27-.957-2.66-1.031s-.383-.586-2.281-1.176l-3.418-1.031 3.418.367c1.898.148 4.941.516 6.84.738 2.355.293 2.961.219 1.898-.223-.836-.367-3.418-.957-5.699-1.176-2.277-.293-4.711-.664-5.395-.883-.758-.223-1.215.148-1.215.883 0 .66.684 1.398 1.598 1.617 1.441.371 1.441.441 0 .957-1.219.441-1.141.59.832.957l4.941 1.176c1.441.371 4.023.887 5.699 1.18 2.504.367 2.809.59 1.746 1.25-1.062.734-1.062.883.531 2.133.988.734 2.281 1.32 2.887 1.32.684 0 1.367.297 1.672.664.227.367 2.203 1.324 4.402 2.133 6.309 2.281 7.371 2.504 7.371 1.691 0-.441-.457-.809-1.062-.809-1.594 0-11.852-4.562-11.852-5.223 0-.809.988-.809 1.973-.074.609.59 6.309 2.355 7.445 2.355 1.371 0 .156-1.473-1.215-1.547-.984 0-2.43-.367-3.266-.734-1.062-.512-.379-.586 2.508-.367 4.637.441 4.559-.074-.609-3.309-2.051-1.324-3.57-2.648-3.344-2.941.461-.738 4.559 1.102 6.23 2.719 1.898 1.914 2.734 1.031.84-.883-3.27-3.383-8.434-5.371-8.738-3.383-.531 4.047-2.812 8.973-3.723 8.09-.305-.219 1.441-6.176 2.734-9.266.762-1.914 2.582-1.766 8.582 1.027 4.559 2.137 4.863 2.137 3.117.297-1.598-1.695-7.824-3.68-11.699-3.68-1.52 0-4.711-.66-7.141-1.469-3.797-1.25-5.09-1.324-10.258-.66l-9.191 1.176-3.34.367.531-3.164c.684-4.047 5.242-13.238 10.176-20.668 4.258-6.18 11.094-11.844 19.68-15.965 7.594-3.746 27.578-7.207 27.578-4.777 0 .734-1.066 1.031-3.727 1.031-6.836 0-16.941 2.129-22.789 4.926-12.687 5.887-27.352 24.863-27.426 35.527 0 3.238.988 2.059 2.125-2.574.992-3.973 5.395-12.875 7.75-15.812 1.215-1.473 1.445-1.547.988-.367-.305.805-1.137 2.277-1.898 3.305-1.445 1.988-6.684 14.125-6.684 15.523 0 1.102 6.152.219 6.988-1.031.457-.66.605-.59.684.223.074.586.379-1.398.684-4.488.609-6.031 2.813-13.902 3.875-13.902.379 0 4.332.809 8.813 1.84 8.738 1.984 23.93 4.781 26.207 4.781.762 0 1.371-.441 1.371-1.031 0-2.5 1.895-2.059 4.559.957 1.668 1.84 3.34 3.09 4.098 2.871.836-.148-.074-1.18-2.961-3.312-3.266-2.504-4.176-3.605-4.176-5.148 0-3.457 1.441-7.355 3.414-9.195 1.066-.957 1.902-2.133 1.902-2.719 0-.516 1.215-2.137 2.813-3.531l2.73-2.578-.152-9.266c-.148-8.828-1.363-15.445-3.187-17.43-.91-.957-.84-.297.453 3.305 1.598 4.344 1.598 20.746.078 22.066-.609.441-1.672 2.504-2.355 4.488-.762 2.063-1.441 3.531-1.598 3.387-.227-.148-.527-6.402-.758-13.832-.301-11.695-.152-14.047.988-17.211.988-2.719 1.746-3.676 2.809-3.676.992 0 2.129 1.176 3.422 3.676 1.746 3.234 1.973 4.781 2.199 13.02.156 5.223.609 9.414.988 9.414 1.367 0 2.207-3.012 2.281-8.238l.152-5.367.609 5.883c.301 3.457.227 6.18-.156 6.621-1.137 1.102-.758 2.133.383 1.176.758-.59 1.215-.66 1.594-.074.836 1.398 1.977 0 1.141-1.469-.383-.734-.762-4.414-.762-8.094 0-9.488-.91-12.355-5.621-17.211-2.129-2.281-4.48-4.121-5.168-4.121-.68 0-1.973.883-2.809 1.914zm3.953 30.82c-.23.66-.609 1.027-.762.809-.227-.223-.152-.664.152-1.105.684-1.176 1.141-.953.609.297zM42.32 51.84c-1.672 2.059-3.039 3.973-3.039 4.34 0 .293-.684.734-1.52.957-1.52.367-1.52.367-.078-1.547 1.977-2.648 6.688-7.5 7.297-7.5.227 0-.992 1.691-2.66 3.75zm20.508 17.652c.688.441-.227.516-2.277.223-1.898-.293-3.723-.809-4.176-1.176-.914-.812 4.707 0 6.453.953zm.305 2.207c1.215.516.914.586-1.441.367-4.102-.441-6.531-1.027-7.141-1.617-.609-.66 6.531.367 8.582 1.25zM27.98 86.574c1.594 3.754-2.07 7.117-4.199 9.691-2.199 2.574-.75 2.172-3.562-1.871-1.977-2.793-2.207-5.441-.609-8.094l1.141-1.836-.457 2.277c-.301 1.328-.074 2.504.379 2.797s.84 1.324.84 2.281c0 2.43.984 2.797 2.047.664.688-1.473.609-1.914-.527-2.504-1.98-1.027-2.359-2.574-1.066-4.34 1.746-2.352 4.723-2.082 6.016.934zm25.504 3.145c-.227.223-.91.297-1.441.074-.609-.219-.379-.441.457-.441.836-.074 1.289.148.984.367zm1.75 1.77c1.824.586 1.824.586-.535.66-1.289.074-2.656-.293-2.883-.66-.531-.812.684-.812 3.418 0zm-22.258 8.09c.531 0 .984.293.984.734 0 1.25-1.898.809-4.633-.957-2.508-1.617-2.656-1.691-4.027-.367-2.199 1.988-2.43.957-.379-1.473l1.824-2.133 2.66 2.133c1.441 1.105 3.039 2.063 3.57 2.063zm-1.293 2.059c0 .367-.836 1.105-1.898 1.617-.988.516-1.977 1.469-2.129 2.133-.301 1.027-.379 1.027-.453-.074 0-.66.301-1.469.684-1.691a1.5 1.5 0 0 0 .758-1.176c0-.441-.379-.516-.914-.219-.527.293-.605.219-.301-.297.605-1.027 4.254-1.176 4.254-.293zm6.227 2.5c2.512 1.102 3.648 2.059 3.648 3.016 0 1.324-.074 1.324-1.973-.148-1.141-.883-2.355-1.543-2.734-1.543-.461 0-1.598-.664-2.66-1.473-2.586-1.91-.836-1.836 3.719.148zm0 0"/><path d="M103.094 43.602c0 .367.379.957.762 1.176.453.223.758.148.758-.293a1.5 1.5 0 0 0-.758-1.176c-.383-.223-.762-.148-.762.293zm6.078 3.015c0-.441-.531.738-.305.738.152 0 .305-.371.305-.738zm11.394 4.781c.609.809 2.66 3.164 4.633 5.223 3.648 3.824 8.965 13.535 11.395 20.891.762 2.207 1.371 3.457 1.371 2.723.078-1.84-3.496-11.77-5.621-16.039-2.355-4.41-7.293-10.371-10.41-12.504-2.129-1.469-2.355-1.469-1.367-.293zm-35.703 5.883c0 .59.379 1.105.758 1.105.457 0 .762.957.762 2.207 0 2.129-.988 2.941-1.902 1.469-1.062-1.617-1.746-.59-1.062 1.398.984 2.648 2.734 3.383 4.559 1.84 1.215-1.031 1.367-1.031 2.203.367.457.883 1.293 1.543 1.898 1.543 1.672 0 1.367-1.102-.531-2.133-1.82-.957-4.406-5.516-4.406-7.648 0-.66-.531-1.25-1.141-1.25s-1.137.516-1.137 1.102zm11.774.664c-2.203 2.133-2.281 2.723-.762 5.59 1.371 2.648 1.445 2.648 4.559.734 4.102-2.5 4.258-4.633.383-6.914-2.203-1.25-2.281-1.25-4.18.59zm2.66 1.691c0 .367-.383 1.102-.762 1.691-.531.809-.91.883-1.594.219-.457-.441-.605-1.176-.379-1.617.605-.879 2.734-1.102 2.734-.293zm15.191 4.044c-.078.516-.684 2.281-1.52 3.902-1.898 3.824-1.898 4.703.078 2.352 1.441-1.91 2.883-7.137 1.898-7.137-.23 0-.457.441-.457.883zm-47.48 9.562c-.227 3.313-.379 9.563-.227 13.828.227 6.988.305 6.695.457-3.09l.148-10.812 4.102 1.398c2.281.734 6.004 1.547 8.359 1.84l4.254.516v-3.387c0-2.129-.379-3.527-.914-3.672s-3.34-.664-6.305-1.105c-2.887-.441-6.227-1.031-7.367-1.25l-1.973-.441zm10.863-1.543c2.129.809 2.281 2.426.078 1.766-1.066-.371-1.441-.223-1.141.219.457.734-7.902-1.031-8.66-1.836-.23-.223 1.52-.223 3.797.07 4.027.441 4.102.367 2.281-.66l-1.898-1.176 1.898.516c1.063.293 2.656.734 3.645 1.102zm15.5-2.133c-.535.516-.91 1.617-.91 2.5 0 1.543-.156 1.617-2.434.957l-3.949-1.473c-1.066-.586-1.215-.586-.762.223.379.512.535 1.762.379 2.719-.074.957.23 2.063.836 2.355 1.371.883 9.57.809 10.105-.074.227-.441 1.141-.734 2.051-.734 1.746 0 8.965-3.605 8.965-4.488s-7.445-2.867-10.637-2.867c-1.52 0-3.113.367-3.645.883zm8.582 2.793c.305.441-.91.734-3.187.664-2.734 0-3.27-.223-2.129-.664 2.129-.879 4.789-.879 5.316 0zm-12.531 2.207c1.363.883.148.883-1.902 0-.988-.441-1.137-.66-.379-.66.605 0 1.672.293 2.281.66zm5.164 1.25c-.762.148-1.977.148-2.66 0-.758-.219-.148-.367 1.293-.367s2.051.148 1.367.367zm8.66 1.473c-3.266 1.547-3.039 2.133.609 1.84 1.898-.223 3.035-.664 3.035-1.25 0-1.621-1.062-1.84-3.645-.59zm-33.578.223c0 .367.23.66.605.66 1.824-.293 3.953.223 4.941 1.18.605.586 2.656 1.25 4.48 1.469l3.266.367-2.809-.809c-1.594-.441-2.887-1.102-2.887-1.473 0-.586-4.711-2.133-6.609-2.133-.531 0-.988.297-.988.738zm9.191 1.027c.914.738 4.559 1.18 4.102.441-.227-.367-1.363-.734-2.43-.734-1.141 0-1.824.148-1.672.293zm-9.953.883c0 .223 1.066.738 2.281 1.105 1.289.441 2.281 1.102 2.281 1.469 0 .441-.609.367-1.445-.074-1.898-.953-3.723-1.027-2.66-.07.762.734 9.574 3.012 11.773 3.012 1.598 0 1.902-1.102.535-1.91-.457-.293-1.066-.148-1.215.293-.305.883-4.559-.734-7.676-2.941-1.746-1.25-3.875-1.766-3.875-.883zm20.36.812a28.21 28.21 0 0 0 4.941 0c1.289-.148.227-.297-2.508-.297s-3.797.148-2.434.297zm10.031.883c-1.672.293-2.355.66-1.746 1.027.91.516 7.063-.66 7.063-1.324 0-.441-1.746-.367-5.316.297zm-10.563.879c.609.367 2.582.59 4.484.59 4.027-.074 3.344-.441-1.824-.883-2.277-.219-3.266-.074-2.66.293zm-54.773.664l7.219 1.027 3.039.441-2.277-1.102c-1.371-.59-4.332-1.031-7.219-.957l-4.937.074zm67.234.879c-1.672.367-5.32.59-8.129.367-3.496-.219-5.164-.07-5.164.516s2.051.664 6.988.297l8.813-.516c.91-.074 1.672-.441 1.672-.809 0-.809-.078-.809-4.18.145zm-32.211.883c.379.441 11.395 4.121 12.23 4.121.305 0 .609-.219.609-.59 0-.293-2.508-1.25-5.473-2.207-5.09-1.469-8.129-2.059-7.367-1.324zm0 3.019c.305 1.324 1.973 2.059 8.508 3.605 3.875.883 2.055-.738-2.277-2.062-2.434-.734-4.863-1.691-5.473-2.133-.758-.664-.984-.516-.758.59zm20.438-.222c0 .734 8.203.59 10.633-.148 1.215-.367-.305-.586-4.328-.512-3.496.07-6.305.367-6.305.66zm-49.531.367c.453.148 1.363.148 1.895 0 .457-.219.078-.367-.984-.367s-1.445.148-.91.367zm-8.59 1.691c-.453.738 3.27 1.84 8.738 2.578 2.508.293 3.117.219 2.281-.297-.609-.441-2.129-.809-3.266-.809-1.145 0-3.27-.441-4.715-1.031s-2.809-.809-3.039-.441zm57.281.957c.305.297 3.344.813 6.84 1.105 5.316.516 6.379.441 6.914-.516.531-1.031-.305-1.176-6.84-1.176-4.18 0-7.289.219-6.914.586zm0 0"/><path d="M81.063 90.75c0 .367.535.738 1.215.738.609 0 .91-.371.684-.738-.227-.441-.758-.734-1.215-.734-.379 0-.684.293-.684.734zm-12.157.297c0 .293 12.309 4.113 13.219 4.113.23 0 .23-.441 0-1.027s-.988-1.027-1.668-1.027-3.344-.516-5.852-1.176c-4.633-1.18-5.699-1.398-5.699-.883zm-37.754.883c.379.367.91.66 1.137.66.305.074 1.824.516 3.344 1.027 1.598.516 3.648.809 4.559.66 1.367-.219 1.141-.437-1.289-1.102-5.09-1.395-8.434-1.91-7.75-1.246zm57.813.953c-.684.734.762 1.543 2.656 1.543 1.445 0 2.434.516 3.039 1.617l.914 1.695-.383-1.695c-.227-1.25.078-1.836 1.293-2.277 1.293-.516.609-.734-2.734-.883-2.434-.148-4.559-.148-4.785 0zm-59.559.957c1.668 1.543 5.848 2.793 9.418 2.719l3.117-.074-3.039-.66-9.496-2.648c-.988-.441-.988-.293 0 .664zm0 0"/><path d="M68.906 93.617c0 .441 1.293 1.324 2.887 1.984 2.891 1.254 10.941 3.313 11.324 2.945.148-.074-2.738-1.324-6.461-2.723l-7.141-2.719c-.379-.148-.609.07-.609.512zm-24.992 1.25c0 .809.23 1.031.457.441.227-.516.148-1.176-.078-1.398-.227-.293-.453.148-.379.957zm22.945 3.606c0 1.988.148 2.797.301 1.617.152-1.102.152-2.719 0-3.676-.152-.883-.301 0-.301 2.059zm2.047-1.102c0 .883 3.648 2.352 4.863 1.984.457-.148-.227-.809-1.594-1.473-2.812-1.469-3.27-1.543-3.27-.512zm-26.965.734c-1.219.516-1.293.66-.23.66.684.074 1.52-.293 1.75-.66.527-.809.527-.809-1.52 0zm35.625 1.25c.836.883 5.777 2.281 5.777 1.691 0-.367-1.066-.957-2.355-1.398-2.734-.883-4.254-1.027-3.422-.293zm57.512 8.016c-1.367 4.637-3.875 11.477-5.469 15.23-1.598 3.746-2.965 7.277-2.965 7.867 0 1.324 3.875-2.871 6.988-7.574l2.355-3.605 1.672 2.059c.988 1.18 2.277 3.898 3.039 6.031 1.52 4.707 1.215 5.297-4.637 7.578-4.402 1.836-4.934 2.645-2.582 4.707 1.824 1.617 15.496 2.426 17.172 1.027 2.199-1.766 1.215-4.707-2.586-8.164-2.051-1.766-4.48-4.781-5.395-6.617-.984-1.84-2.582-4.34-3.492-5.445-1.598-1.914-1.977-1.984-3.344-1.25-.836.516-1.672.957-1.824.957s.688-4.047 1.902-9.047c2.887-11.988 2.355-14.27-.836-3.754zm-65.41-6.984c0 .367.91.809 2.125 1.102 2.434.516 5.699 1.398 9.117 2.43 2.965.879 3.266-.148.383-1.324-3.57-1.324-11.625-2.945-11.625-2.207zM43.84 103.18c0 .441 2.961 1.617 6.684 2.648l9.117 2.723c1.367.367 2.734.586 2.887.367.457-.441-4.406-2.207-10.484-3.828-2.434-.66-4.559-1.543-4.785-1.91-.609-.879-3.418-.879-3.418 0zm25.828.441c0 .664 1.063 1.25 2.887 1.469l5.473 1.18c3.34.809 5.848.883 4.934.074-.453-.371-2.961-1.031-5.695-1.547s-5.242-1.25-5.621-1.617c-1.141-.953-1.977-.809-1.977.441zm-25.828 5.297c0 2.133.305 3.164.605 2.574.379-.516 1.293-.734 2.129-.516 1.445.441 1.445.441 0-.66-2.129-1.621-1.215-1.473 3.113.586 3.875 1.914 10.637 3.313 9.875 2.063-.305-.367-2.051-.883-3.949-1.105-1.898-.293-5.242-1.469-7.445-2.723-4.023-2.281-4.406-2.723-.988-1.469 2.586.883 2.586-.223.078-1.324-3.113-1.398-3.418-1.105-3.418 2.574zm22.941-1.25c0 1.027.152 1.398.379.883.152-.441.152-1.324 0-1.84-.227-.441-.379-.074-.379.957zm2.887-.074c0 .809 8.965 5.004 11.699 5.52 3.27.586 2.203-.883-1.215-1.77a36.87 36.87 0 0 1-6.457-2.648c-3.496-1.91-4.027-2.059-4.027-1.102zm5.699-.149c.453.441 2.355 1.25 4.406 1.914 2.809.957 3.57.957 3.57.219 0-.586-1.293-1.176-2.965-1.469-1.672-.223-3.645-.664-4.406-.883-.91-.371-1.141-.297-.605.219zm-41.027 2.063l1.676 6.25c1.52 6.031 2.656 8.754 2.199 5.148-.836-5.883-1.746-9.414-3.039-11.105-1.137-1.398-1.289-1.473-.836-.293zm0 0"/><path d="M36.852 109.578c.453.813 1.289 1.84 1.82 2.281 1.219.883 4.328 2.063 3.27 1.18l-3.344-2.797c-1.977-1.691-2.355-1.84-1.746-.664zm32.816 1.324c0 1.254 4.406 4.563 7.977 6.031 3.57 1.398 4.027 1.324 3.648-.734-.305-1.398-.988-1.84-3.195-2.207-1.59-.219-4.102-1.25-5.621-2.277-1.973-1.254-2.809-1.473-2.809-.812zm19.98.297c.758.809 2.508 1.914 3.797 2.426 1.371.516 2.656 1.25 2.891 1.617.301.367.68.367.984-.074.23-.437-.305-1.027-1.219-1.32-.984-.293-3.109-1.324-4.785-2.355-2.582-1.543-2.809-1.617-1.668-.293zm-49.609 3.824c1.141 1.027 1.977 1.32 2.129.734.379-1.027.227-1.176-2.129-1.766l-1.898-.512zm29.629 1.836c0 .59.758 1.547 1.672 2.137.91.66 1.367 1.176.988 1.176-.684.074 7.824 3.68 8.508 3.68.152 0 .227-.664.227-1.473 0-1.105-.984-1.914-3.57-3.016l-5.699-2.504c-1.82-.809-2.125-.809-2.125 0zm28.562-.441c-.227.367.457.883 1.598 1.18 1.215.219 2.355.883 2.656 1.324.383.586.609.293.609-.664 0-1.031-.609-1.766-1.668-2.059-2.359-.59-2.738-.516-3.195.219zm-11.468 1.547c-.684 1.102-.762 1.031 4.484 3.238 2.43 1.027 5.543 1.91 6.836 1.91s2.883.371 3.492.813c1.898 1.246-7.75-.074-9.875-1.398-2.051-1.254-8.355-2.43-8.355-1.621 0 .297 1.52.809 3.418 1.031 2.203.367 3.418.883 3.418 1.617 0 .59.762 1.031 1.746 1.031.91 0 3.801.441 6.461 1.027l4.707.957v-2.793c0-3.312-.684-3.754-7.598-5.004l-6.531-1.324c-.914-.148-1.898.074-2.203.516zm-17.094 4.414c0 .809 3.418 2.574 7.52 4.043 1.977.734 2.281 1.031 1.141 1.031-.91.074-3.113-.441-4.859-1.031-3.801-1.32-4.258-1.102-3.043 1.105 1.367 2.5 9.879 5.738 9.879 3.824 0-.367-1.977-1.25-4.332-1.988-2.43-.734-3.949-1.469-3.418-1.617.531-.219 2.051 0 3.344.441 3.57 1.25 4.559 1.031 4.254-.809-.152-1.176-1.52-2.059-5.32-3.602-2.887-1.105-5.164-1.766-5.164-1.398zm13.066 2.867c.078 2.5 1.293 3.234 9.727 5.371 11.699 2.941 10.555 2.941 10.328.293-.148-1.25-.305-2.5-.379-2.723 0-.219-4.18-1.176-9.191-2.133-4.937-.953-8.887-1.984-8.66-2.352.227-.293-.156-.59-.762-.59-.758 0-1.062.738-1.062 2.133zm4.48 1.617c.914.441 4.711 1.398 8.512 2.133 6.457 1.324 6.609 1.398 2.277 1.031-5.242-.441-12.078-2.133-12.762-3.238-.605-.953.074-.953 1.973.074zm-.226-3.234c.457.148 1.367.148 1.898 0 .457-.219.078-.367-.984-.367s-1.445.148-.914.367zm-34.261 1.031c.531.512 1.141.734 1.367.512s-.152-.66-.91-.879c-1.066-.441-1.141-.367-.457.367zm0 0"/><path d="M55.234 124.879c0 .148 1.824 1.324 4.023 2.574 2.129 1.25 3.496 2.281 2.965 2.281s-.758.367-.531.734c.305.441.836.59 1.215.367 1.063-.66.836-2.574-.305-2.574-.531 0-1.668-.516-2.508-1.105-1.363-1.102-1.289-1.176 1.145-.66 1.895.293 2.43.219 1.973-.441-.305-.512-1.52-.734-2.812-.586-1.215.219-2.355.074-2.582-.297-.379-.586-2.582-.879-2.582-.293zm-3.191 3.898c.531.219 1.215.145 1.441-.074.305-.223-.148-.441-.984-.367-.836 0-1.066.219-.457.441zm-5.926.735c0 .516 2.434 2.355 3.266 2.43 1.293 0 .383-1.324-1.363-2.062-1.066-.441-1.902-.66-1.902-.367zm23.477 1.84c.453 1.176 1.895 1.988 5.09 2.945 5.395 1.543 6.078 1.617 4.934.293-.453-.516-2.277-1.25-4.023-1.473-1.824-.293-3.57-1.102-4.176-1.914-1.445-1.984-2.586-1.84-1.824.148zm12.988-1.032c0 .957 2.734 1.621 6.078 1.547l2.656-.074-2.656-.59-4.328-1.102c-1.066-.293-1.75-.223-1.75.219zm-27.043 1.547c.836.883.984 1.473.379 2.059-.531.516-.23.738 1.141.738 1.063 0 1.973-.223 1.973-.59s.383-.66.758-.66c.461 0 .762.512.762 1.102s.531 1.102 1.141 1.102c1.215 0 1.441-.66.531-1.91-.914-1.398-2.734-1.547-3.797-.367-.914 1.027-.988.957-.609-.738s.227-1.984-1.52-1.984-1.824.145-.758 1.25zm-4.863.074c0 .883 3.039 2.5 3.648 1.914.227-.297-.23-.957-1.066-1.547-1.668-1.25-2.582-1.398-2.582-.367zm74.219.735c-.227.59-.531 1.914-.68 2.941s-.684 1.766-1.215 1.617c-.762-.145-1.371 2.43-.988 4.488.074.293.227 3.313.453 6.617.379 7.285-.074 7.875-7.062 10.152-4.559 1.473-5.547 1.543-10.562.809-6-.953-8.051-.586-7.672 1.176.305 1.695 5.699 2.504 13.902 2.137s12.609-2.207 17.93-7.648c5.469-5.52 5.469-5.594 1.746-10.961-1.824-2.648-3.645-6.18-4.102-7.871-1.215-4.488-1.293-4.633-1.75-3.457zm-41.325 1.25c.074 1.254.91 1.621 5.09 2.281 8.965 1.469 13.902 1.836 13.371 1.027-.23-.367-2.965-.953-5.93-1.176-8.504-.734-11.238-1.25-11.238-2.059 0-.367.605-.516 1.363-.293.688.148 4.027.59 7.371.809s6.684.59 7.445.809c.684.223 1.293.074 1.293-.293 0-.957-3.191-1.473-11.777-2.062-6.836-.512-7.141-.441-6.988.957zm-12.761 1.031c.305.367.91.66 1.367.66.531 0 2.734.809 4.938 1.84 3.266 1.469 3.875 1.543 3.266.586-.379-.734-2.812-1.836-5.316-2.496-2.586-.738-4.484-.957-4.254-.59zm-1.141 2.426c.605.586 3.57 1.91 6.457 3.016 4.559 1.617 5.09 1.691 3.797.516-1.52-1.324-8.887-4.559-10.484-4.559-.453 0-.375.438.23 1.027zm18.234.957c1.441.07 5.164.586 8.277 1.027 3.422.516 5.852.516 6.305.074.762-.734-8.582-1.691-14.129-1.473-2.961.074-2.961.074-.453.371zm.379 2.426c.836.367 3.266.59 5.316.59h3.797l-3.039-.664c-1.668-.293-4.023-.586-5.316-.586-1.973 0-2.051.145-.758.66zm-3.113 1.839c1.215.664 4.48 1.473 7.215 1.84l7.898 1.176c2.129.371 2.813.223 2.813-.512 0-.812-1.215-1.105-4.406-1.18-2.43 0-6.227-.59-8.508-1.25-2.203-.664-4.785-1.176-5.621-1.176-1.371 0-1.215.219.609 1.102zm13.977.149c.457.145 1.367.145 1.898 0 .453-.223.078-.367-.988-.367s-1.441.145-.91.367zm6.683 10.148c-2.051 1.84-3.418 3.313-2.961 3.313 1.52 0 7.824-4.414 7.824-5.52 0-1.691-.836-1.324-4.863 2.207zM135 150.844c0 .441-1.594 2.5-3.496 4.563-3.645 3.895-8.203 6.91-13.062 8.605-1.598.512-2.207.953-1.445 1.027 2.203 0 9.043-3.383 12.457-6.254 3.344-2.719 6.766-7.5 6.004-8.238-.227-.293-.457-.145-.457.297zm0 0"/></svg>