<?xml version="1.0" encoding="utf-8"?>
<svg version="1.0" width="237.000000pt" height="235.000000pt" viewBox="0 0 237.000000 235.000000" preserveAspectRatio="xMidYMid meet" xmlns="http://www.w3.org/2000/svg">
  <g transform="matrix(0.1, 0, 0, -0.1, 5.86154, 244.37764)" fill="#000000" stroke="none">
    <path d="M 1383.835 2312 C 1348.524 2275 1291.402 2047 1310.096 2018 C 1314.251 2013 1318.405 1985 1321.521 1956 C 1326.714 1897 1330.868 1880 1342.292 1880 C 1346.446 1880 1350.601 1904 1350.601 1932 C 1350.601 1961 1353.716 2008 1357.871 2035 C 1365.141 2082 1365.141 2083 1350.601 2060 C 1330.868 2027 1330.868 2047 1352.678 2123 C 1373.449 2199 1383.835 2215 1403.568 2199 C 1423.301 2183 1422.262 2087 1401.491 1969 C 1383.835 1875 1386.951 1832 1407.722 1845 C 1412.915 1848 1429.532 1839 1444.072 1823 C 1473.152 1791 1477.307 1775 1454.458 1784 C 1438.879 1789 1431.609 1775 1447.188 1768 C 1458.612 1763 1497.039 1680 1506.387 1641 C 1510.541 1623 1523.004 1599 1533.389 1589 C 1543.775 1579 1564.547 1546 1579.087 1518 L 1604.012 1465 L 1573.894 1500 C 1556.238 1519 1542.737 1540 1542.737 1547 C 1542.737 1554 1538.582 1560 1533.389 1560 C 1525.081 1560 1510.541 1502 1505.348 1448 C 1498.078 1362 1478.345 1313 1429.532 1255 C 1401.491 1222 1365.141 1173 1348.524 1145 L 1318.405 1095 L 1237.396 1089 C 1167.812 1085 1153.272 1081 1136.655 1059 C 1126.269 1046 1116.922 1031 1116.922 1027 C 1116.922 1000 1265.438 910 1310.096 910 C 1318.405 910 1322.559 905 1319.444 900 C 1304.904 877 1424.339 904 1485.615 936 C 1558.315 975 1557.277 977 1480.422 949 C 1414.992 925 1317.366 927 1262.322 955 C 1218.702 977 1158.465 1029 1158.465 1046 C 1158.465 1063 1186.506 1065 1191.699 1048 C 1195.854 1038 1206.239 1040 1237.396 1052 C 1298.672 1077 1345.408 1084 1346.446 1068 C 1347.485 1050 1414.992 997 1428.494 1005 C 1447.188 1016 1439.918 1039 1402.529 1079 C 1382.796 1100 1366.179 1122 1366.179 1128 C 1366.179 1134 1396.298 1175 1432.648 1219 C 1496.001 1297 1499.117 1304 1516.772 1395 C 1527.158 1448 1539.621 1493 1542.737 1495 C 1552.084 1501 1593.627 1441 1625.822 1375 C 1639.324 1348 1659.057 1317 1669.442 1307 C 1679.828 1297 1688.137 1279 1687.098 1267 L 1687.098 1245 L 1677.751 1268 C 1664.249 1299 1660.095 1295 1665.288 1258 C 1668.404 1240 1676.712 1221 1683.982 1217 C 1703.715 1206 1703.715 1140 1683.982 1140 C 1676.712 1140 1667.365 1132 1663.211 1123 C 1660.095 1113 1641.401 1084 1620.629 1058 C 1580.125 1005 1580.125 995 1620.629 1037 L 1646.594 1065 L 1634.131 1033 C 1623.745 1005 1624.784 995 1644.517 957 C 1672.558 902 1673.597 855 1646.594 762 C 1615.437 654 1621.668 655 1672.558 763 C 1799.264 1033 1832.498 1178 1801.341 1322 C 1778.492 1425 1667.365 1623 1586.357 1705 C 1408.761 1885 1400.452 1899 1527.158 1810 C 1595.704 1762 1610.244 1754 1600.897 1769 C 1596.742 1776 1568.701 1799 1539.621 1822 C 1459.651 1883 1458.612 1884 1477.307 1976 C 1501.194 2096 1491.847 2191 1450.304 2262 C 1409.799 2331 1404.606 2335 1383.835 2312 Z M 1515.734 1710 C 1521.965 1681 1520.927 1678 1511.579 1693 C 1504.309 1703 1494.962 1726 1489.769 1743 C 1482.499 1770 1482.499 1772 1494.962 1760 C 1503.271 1752 1512.618 1729 1515.734 1710 Z M 1658.018 1562 C 1664.249 1554 1675.674 1529 1683.982 1507 C 1691.252 1484 1714.101 1427 1735.911 1380 C 1768.107 1308 1775.377 1281 1779.531 1205 C 1781.608 1155 1778.492 1100 1772.261 1080 C 1762.914 1050 1761.875 1056 1767.068 1120 C 1773.3 1209 1753.567 1285 1689.175 1415 C 1626.861 1542 1593.627 1645 1631.015 1595 C 1639.324 1584 1651.787 1569 1658.018 1562 Z M 1708.908 1100 C 1708.908 1084 1714.101 1070 1719.294 1070 C 1725.525 1070 1729.68 1066 1729.68 1060 C 1729.68 1042 1709.947 1050 1692.291 1075 C 1675.674 1100 1678.789 1130 1698.522 1130 C 1703.715 1130 1708.908 1117 1708.908 1100 Z" style=""/>
    <path d="M 1055.646 2294 C 1025.528 2258 1012.026 2202 1003.718 2090 L 997.486 1995 L 950.751 1986 C 841.7 1966 687.992 1928 643.333 1909 C 575.826 1882 478.2 1813 419.002 1752 C 336.955 1667 226.866 1498 201.94 1417 C 190.516 1377 207.2 1331.443 193.699 1314.443 C 161.503 1273.443 151.118 1218.443 168.773 1177.443 C 187.468 1134.443 187.4 1094 224.789 1080 C 251.792 1069 254.907 1063 254.907 1021 C 254.907 875 324.492 701 427.31 592 C 519.743 493 704.609 385 862.472 337 C 954.905 309 1171.966 275 1197.931 285 C 1216.625 292 1205.201 306 1174.044 313 C 1161.581 316 1167.812 318 1190.661 319 C 1235.319 320 1355.794 358 1355.794 371 C 1355.794 383 1353.716 383 1291.402 358 C 1244.666 339 1216.625 336 1101.343 336 C 960.098 336 954.905 337 766.923 404 C 684.876 433 561.286 515 476.123 596 C 375.382 692 340.07 755 300.605 911 C 260.1 1076 261.139 1065 279.833 1051 C 289.18 1043 296.45 1031 296.45 1024 C 296.45 1016 300.605 1002 305.797 992 C 310.99 983 325.53 938 336.955 893 C 349.417 847 368.112 791 379.536 768 C 452.236 623 656.835 464 857.279 397 C 1012.026 345 1123.153 341 1236.358 381 C 1265.438 392 1298.672 400 1312.174 400 C 1325.675 400 1332.945 404 1329.829 410 C 1326.714 415 1308.019 420 1290.364 420 C 1252.975 420 1063.955 467 1054.608 478 C 1051.492 482 1026.566 491 998.525 498 C 970.483 505 920.632 521 889.475 533 L 831.315 555 L 828.199 983 L 826.122 1410 L 793.926 1410 C 776.27 1410 754.46 1414 745.113 1419 C 703.57 1439 672.413 1440 667.22 1423 C 663.066 1406 662.028 1406 660.989 1423 C 659.95 1444 639.179 1446 639.179 1425 C 639.179 1413 635.025 1414 619.446 1429 C 609.06 1439 578.942 1450 552.977 1454 C 525.975 1458 501.049 1466 497.933 1472 C 490.663 1482 563.363 1477 612.176 1463 C 624.639 1460 629.832 1462 626.716 1471 C 623.6 1479 617.369 1485 612.176 1485 C 569.595 1488 505.203 1503 509.357 1510 C 512.473 1514 540.515 1512 571.672 1505 C 603.868 1498 631.909 1496 633.986 1501 C 637.102 1505 622.562 1512 600.752 1515 C 578.942 1519 549.862 1525 535.322 1530 C 514.55 1537 513.512 1538 530.129 1539 C 554.016 1539 681.76 1513 663.066 1511 C 655.796 1510 652.68 1504 655.796 1496 C 658.912 1488 656.835 1479 650.603 1475 C 624.639 1460 644.372 1452 723.303 1448 C 775.232 1445 810.543 1438 815.736 1431 C 819.89 1423 826.122 1441 831.315 1475 C 834.43 1506 836.508 1533 834.43 1534 C 827.16 1540 683.838 1572 644.372 1576 C 621.523 1579 584.135 1585 561.286 1590 C 509.357 1602 493.779 1602 493.779 1592 C 493.779 1582 633.986 1550 681.76 1550 C 701.493 1549 743.036 1543 774.193 1535 C 819.89 1523 823.006 1521 789.772 1525 C 766.923 1528 703.57 1535 648.526 1540 C 594.52 1545 537.399 1554 522.859 1559 C 496.895 1568 496.895 1568 489.625 1498 C 486.509 1459 484.432 1425 486.509 1424 C 495.856 1415 766.923 1372 782.502 1376 C 796.003 1381 797.042 1380 785.618 1372 C 774.193 1364 776.27 1361 793.926 1355 C 817.813 1348 824.045 1330 801.196 1330 C 793.926 1330 764.846 1340 737.843 1351 C 703.57 1366 675.529 1371 647.488 1367 C 622.562 1364 595.559 1367 578.942 1376 C 547.785 1392 514.55 1394 514.55 1381 C 514.55 1369 602.829 1347 625.678 1354 C 636.063 1357 682.799 1349 727.458 1336 L 810.543 1313 L 812.62 1157 L 814.698 1002 L 765.885 1020 C 738.882 1030 690.069 1046 657.873 1055 C 624.639 1064 597.636 1075 597.636 1081 C 597.636 1086 591.405 1090 583.096 1090 C 565.44 1090 551.939 1106 564.402 1114 C 568.556 1116 600.752 1106 635.025 1090 C 703.57 1058 792.888 1039 780.425 1058 C 776.27 1065 765.885 1070 757.576 1070 C 733.689 1070 605.945 1120 585.173 1137 C 570.633 1150 566.479 1149 557.132 1131 C 550.9 1120 545.707 1105 545.707 1097 C 545.707 1083 591.405 1047 613.215 1044 C 619.446 1044 625.678 1042 628.793 1041 C 631.909 1039 673.452 1028 722.265 1017 L 810.543 995 L 810.543 958 C 811.582 933 806.389 920 798.08 920 C 790.81 920 784.579 924 784.579 929 C 784.579 940 642.295 983 625.678 977 C 619.446 974 622.562 971 633.986 971 C 651.642 970 652.68 968 639.179 959 C 626.716 950 627.755 949 647.488 953 C 659.95 956 668.259 955 665.143 950 C 662.028 946 669.298 940 680.722 937 C 692.146 934 703.57 936 706.686 941 C 710.84 946 720.188 946 730.573 941 C 739.92 936 760.692 927 777.309 919 C 807.428 905 816.775 884 787.695 894 C 772.116 899 772.116 898 788.733 885 C 806.389 872 807.428 870 791.849 870 C 773.155 870 576.865 919 564.402 927 C 559.209 929 556.093 927 556.093 921 C 556.093 915 575.826 906 600.752 900 C 624.639 894 668.259 883 696.3 875 C 725.38 867 759.653 860 774.193 858 C 793.926 856 800.158 849 802.235 828 C 803.273 804 800.158 800 778.348 800 C 763.808 800 741.998 805 729.535 811 C 713.956 820 706.686 820 703.57 812 C 701.493 806 693.185 804 684.876 807 C 677.606 810 673.452 817 677.606 823 C 681.76 829 677.606 831 667.22 827 C 658.912 824 625.678 833 595.559 847 C 521.82 882 542.592 885 644.372 855 C 697.339 840 730.573 834 736.805 840 C 744.075 847 739.92 850 726.419 850 C 703.57 850 586.212 885 556.093 900 C 533.245 912 533.245 916 533.245 786 C 533.245 712 536.36 707 595.559 695 C 643.333 685 637.102 704 587.25 719 C 543.63 731 528.052 752 569.595 743 C 588.289 739 590.366 740 576.865 750 C 563.363 760 564.402 761 579.98 756 C 590.366 753 601.79 750 603.868 750 C 606.983 750 605.945 745 602.829 739 C 598.675 733 601.79 730 609.06 731 C 617.369 732 637.102 728 652.68 722 C 669.298 715 686.953 710 692.146 710 C 698.378 710 700.455 706 696.3 701 C 693.185 696 696.3 688 702.532 684 C 710.84 680 711.879 681 707.725 688 C 703.57 695 704.609 700 710.84 700 C 716.033 700 724.342 696 727.458 690 C 730.573 685 738.882 680 745.113 680 C 761.73 680 709.802 716 680.722 725 C 643.333 736 539.476 803 552.977 807 C 559.209 809 584.135 802 606.983 790 C 630.87 779 676.568 768 709.802 765 C 749.268 762 762.769 764 748.229 770 C 736.805 775 713.956 779 697.339 779 C 664.105 780 545.707 828 545.707 841 C 545.707 854 550.9 853 611.138 825 C 640.218 811 683.838 798 706.686 796 C 813.659 786 815.736 783 815.736 644 C 815.736 547 812.62 540 761.73 540 C 738.882 540 621.523 599 569.595 637 C 550.9 650 535.322 670 535.322 681 C 535.322 691 531.167 700 524.936 700 C 518.705 700 514.55 730 514.55 769 C 514.55 823 510.396 839 497.933 844 C 474.046 853 468.853 851 481.316 837 C 492.74 824 516.627 679 509.357 671 C 498.972 662 458.467 708 432.503 760 C 387.845 845 340.07 1030 361.88 1030 C 367.073 1030 383.69 1018 397.192 1003 C 414.847 986 425.233 981 430.426 988 C 435.619 996 450.159 989 476.123 969 L 514.55 939 L 514.55 989 C 514.55 1030 511.435 1038 498.972 1034 C 490.663 1030 483.393 1033 483.393 1039 C 483.393 1045 475.085 1050 464.699 1050 C 454.313 1050 436.657 1057 425.233 1065 C 407.577 1078 409.655 1079 457.429 1073 C 486.509 1070 512.473 1062 516.627 1056 C 521.82 1050 524.936 1055 524.936 1068 C 524.936 1087 519.743 1090 487.547 1090 C 465.737 1090 453.275 1094 457.429 1100 C 461.583 1106 445.98 1111.218 416.925 1110 C 316.096 1105.775 387.809 1142.328 361.844 1239.328 C 350.339 1282.307 373.867 1329.997 376.983 1333.997 C 388.407 1351.997 381.613 1352 441.85 1346 C 497.933 1340 611.138 1302 579.98 1301 C 572.71 1300 566.479 1294 566.479 1286 C 566.479 1278 560.248 1269 554.016 1267 C 546.746 1264 549.862 1261 561.286 1260 L 582.058 1259 L 561.286 1250 C 543.63 1243 543.63 1241 559.209 1241 C 568.556 1240 576.865 1235 576.865 1230 C 576.865 1219 565.44 1221 467.815 1246 C 439.773 1253 423.156 1259 431.465 1260 C 439.773 1261 426.272 1268 400.307 1276 L 353.572 1290 L 400.307 1285 C 426.272 1283 467.815 1278 493.779 1275 C 525.975 1271 534.283 1272 519.743 1278 C 508.319 1283 473.007 1291 441.85 1294 C 410.693 1298 377.459 1303 368.112 1306 C 357.726 1309 351.495 1304 351.495 1294 C 351.495 1285 360.842 1275 373.305 1272 C 393.037 1267 393.037 1266 373.305 1259 C 356.687 1253 357.726 1251 384.729 1246 C 402.385 1242 432.503 1235 452.236 1230 C 471.969 1225 507.28 1218 530.129 1214 C 564.402 1209 568.556 1206 554.016 1197 C 539.476 1187 539.476 1185 561.286 1168 C 574.788 1158 592.443 1150 600.752 1150 C 610.099 1150 619.446 1146 623.6 1141 C 626.716 1136 653.719 1123 683.838 1112 C 770.039 1081 784.579 1078 784.579 1089 C 784.579 1095 778.348 1100 770.039 1100 C 748.229 1100 608.022 1162 608.022 1171 C 608.022 1182 621.523 1182 635.025 1172 C 643.333 1164 721.226 1140 736.805 1140 C 755.499 1140 738.882 1160 720.188 1161 C 706.686 1161 686.953 1166 675.529 1171 C 660.989 1178 670.336 1179 709.802 1176 C 773.155 1170 772.116 1177 701.493 1221 C 673.452 1239 652.68 1257 655.796 1261 C 662.028 1271 718.11 1246 740.959 1224 C 766.923 1198 778.348 1210 752.383 1236 C 707.725 1282 637.102 1309 632.948 1282 C 625.678 1227 594.52 1160 582.058 1172 C 577.903 1175 601.79 1256 619.446 1298 C 629.832 1324 654.758 1322 736.805 1284 C 799.119 1255 803.273 1255 779.386 1280 C 757.576 1303 672.413 1330 619.446 1330 C 598.675 1330 555.055 1339 521.82 1350 C 469.892 1367 452.236 1368 381.613 1359 C 337.993 1353 280.872 1346 255.946 1343 L 210.249 1338 L 217.519 1381 C 226.866 1436 289.18 1561 356.687 1662 C 414.847 1746 508.319 1823 625.678 1879 C 729.535 1930 1002.679 1977 1002.679 1944 C 1002.679 1934 988.139 1930 951.789 1930 C 858.318 1930 720.188 1901 640.218 1863 C 466.776 1783 266.332 1525 265.293 1380 C 265.293 1336 278.795 1352 294.373 1415 C 307.875 1469 368.112 1590 400.307 1630 C 416.925 1650 420.04 1651 413.809 1635 C 409.655 1624 398.23 1604 387.845 1590 C 368.112 1563 296.45 1398 296.45 1379 C 296.45 1364 380.575 1376 391.999 1393 C 398.23 1402 400.307 1401 401.346 1390 C 402.385 1382 406.539 1409 410.693 1451 C 419.002 1533 449.12 1640 463.66 1640 C 468.853 1640 522.859 1629 584.135 1615 C 703.57 1588 911.285 1550 942.442 1550 C 952.828 1550 961.136 1556 961.136 1564 C 961.136 1598 987.101 1592 1023.451 1551 C 1046.299 1526 1069.148 1509 1079.533 1512 C 1090.958 1514 1078.495 1528 1039.029 1557 C 994.371 1591 981.908 1606 981.908 1627 C 981.908 1674 1001.641 1727 1028.643 1752 C 1043.183 1765 1054.608 1781 1054.608 1789 C 1054.608 1796 1071.225 1818 1093.035 1837 L 1130.424 1872 L 1128.346 1998 C 1126.269 2118 1109.652 2208 1084.726 2235 C 1072.263 2248 1073.302 2239 1090.958 2190 C 1112.768 2131 1112.768 1908 1091.996 1890 C 1083.688 1884 1069.148 1856 1059.801 1829 C 1049.415 1801 1040.068 1781 1037.991 1783 C 1034.875 1785 1030.721 1870 1027.605 1971 C 1023.451 2130 1025.528 2162 1041.106 2205 C 1054.608 2242 1064.993 2255 1079.533 2255 C 1093.035 2255 1108.613 2239 1126.269 2205 C 1150.156 2161 1153.272 2140 1156.388 2028 C 1158.465 1957 1164.696 1900 1169.889 1900 C 1188.584 1900 1200.008 1941 1201.046 2012 L 1203.124 2085 L 1211.432 2005 C 1215.586 1958 1214.548 1921 1209.355 1915 C 1193.776 1900 1198.969 1886 1214.548 1899 C 1224.934 1907 1231.165 1908 1236.358 1900 C 1247.782 1881 1263.361 1900 1251.936 1920 C 1246.744 1930 1241.551 1980 1241.551 2030 C 1241.551 2159 1229.088 2198 1164.696 2264 C 1135.616 2295 1103.421 2320 1094.073 2320 C 1084.726 2320 1067.071 2308 1055.646 2294 Z M 1109.652 1875 C 1106.536 1866 1101.343 1861 1099.266 1864 C 1096.151 1867 1097.189 1873 1101.343 1879 C 1110.691 1895 1116.922 1892 1109.652 1875 Z M 514.55 1739 C 491.702 1711 473.007 1685 473.007 1680 C 473.007 1676 463.66 1670 452.236 1667 C 431.465 1662 431.465 1662 451.197 1688 C 478.2 1724 542.592 1790 550.9 1790 C 554.016 1790 537.399 1767 514.55 1739 Z M 794.965 1499 C 804.312 1493 791.849 1492 763.808 1496 C 737.843 1500 712.918 1507 706.686 1512 C 694.223 1523 771.078 1512 794.965 1499 Z M 799.119 1469 C 815.736 1462 811.582 1461 779.386 1464 C 723.303 1470 690.069 1478 681.76 1486 C 673.452 1495 771.078 1481 799.119 1469 Z M 318.515 1266.763 C 340.326 1215.763 290.219 1170 261.139 1135 C 231.02 1100 250.82 1105.443 212.393 1160.443 C 185.39 1198.443 182.275 1234.443 204.085 1270.443 L 219.663 1295.443 L 213.432 1264.443 C 209.278 1246.443 212.393 1230.443 218.625 1226.443 C 224.856 1222.443 230.049 1208.443 230.049 1195.443 C 230.049 1162.443 243.55 1157.443 258.09 1186.443 C 267.438 1206.443 266.399 1212.443 250.82 1220.443 C 223.818 1234.443 218.625 1255.443 236.28 1279.443 C 260.168 1311.443 300.86 1307.763 318.515 1266.763 Z M 667.22 1224 C 664.105 1221 654.758 1220 647.488 1223 C 639.179 1226 642.295 1229 653.719 1229 C 665.143 1230 671.375 1227 667.22 1224 Z M 691.108 1200 C 716.033 1192 716.033 1192 683.838 1191 C 666.182 1190 647.488 1195 644.372 1200 C 637.102 1211 653.719 1211 691.108 1200 Z M 386.806 1090 C 394.076 1090 400.307 1086 400.307 1080 C 400.307 1063 374.343 1069 336.955 1093 C 302.682 1115 300.605 1116 281.91 1098 C 251.792 1071 248.676 1085 276.717 1118 L 301.643 1147 L 337.993 1118 C 357.726 1103 379.536 1090 386.806 1090 Z M 369.15 1062 C 369.15 1057 357.726 1047 343.186 1040 C 329.685 1033 316.183 1020 314.106 1011 C 309.952 997 308.913 997 307.875 1012 C 307.875 1021 312.029 1032 317.222 1035 C 323.453 1038 327.607 1046 327.607 1051 C 327.607 1057 322.415 1058 315.145 1054 C 307.875 1050 306.836 1051 310.99 1058 C 319.299 1072 369.15 1074 369.15 1062 Z M 454.313 1028 C 488.586 1013 504.165 1000 504.165 987 C 504.165 969 503.126 969 477.162 989 C 461.583 1001 444.966 1010 439.773 1010 C 433.542 1010 417.963 1019 403.423 1030 C 368.112 1056 391.999 1055 454.313 1028 Z" style=""/>
    <path d="M 1345.408 1851 C 1345.408 1846 1350.601 1838 1355.794 1835 C 1362.025 1832 1366.179 1833 1366.179 1839 C 1366.179 1844 1362.025 1852 1355.794 1855 C 1350.601 1858 1345.408 1857 1345.408 1851 Z" style=""/>
    <path style="" d="M 1428.494 1810 C 1428.494 1816 1421.224 1800 1424.339 1800 C 1426.417 1800 1428.494 1805 1428.494 1810 Z"/>
    <path d="M 1584.279 1745 C 1592.588 1734 1620.629 1702 1647.632 1674 C 1697.484 1622 1770.184 1490 1803.418 1390 C 1813.804 1360 1822.112 1343 1822.112 1353 C 1823.151 1378 1774.338 1513 1745.258 1571 C 1713.062 1631 1645.555 1712 1602.974 1741 C 1573.894 1761 1570.778 1761 1584.279 1745 Z" style=""/>
    <path d="M 1096.151 1665 C 1096.151 1657 1101.343 1650 1106.536 1650 C 1112.768 1650 1116.922 1637 1116.922 1620 C 1116.922 1591 1103.421 1580 1090.958 1600 C 1076.418 1622 1067.071 1608 1076.418 1581 C 1089.919 1545 1113.806 1535 1138.732 1556 C 1155.349 1570 1157.426 1570 1168.851 1551 C 1175.082 1539 1186.506 1530 1194.815 1530 C 1217.664 1530 1213.509 1545 1187.545 1559 C 1162.619 1572 1127.308 1634 1127.308 1663 C 1127.308 1672 1120.038 1680 1111.729 1680 C 1103.421 1680 1096.151 1673 1096.151 1665 Z" style=""/>
    <path d="M 1257.129 1656 C 1227.011 1627 1225.972 1619 1246.744 1580 C 1265.438 1544 1266.476 1544 1309.058 1570 C 1365.141 1604 1367.218 1633 1314.251 1664 C 1284.132 1681 1283.094 1681 1257.129 1656 Z M 1293.479 1633 C 1293.479 1628 1288.286 1618 1283.094 1610 C 1275.824 1599 1270.631 1598 1261.284 1607 C 1255.052 1613 1252.975 1623 1256.091 1629 C 1264.399 1641 1293.479 1644 1293.479 1633 Z" style=""/>
    <path d="M 1501.194 1578 C 1500.155 1571 1491.847 1547 1480.422 1525 C 1454.458 1473 1454.458 1461 1481.461 1493 C 1501.194 1519 1520.927 1590 1507.425 1590 C 1504.309 1590 1501.194 1584 1501.194 1578 Z" style=""/>
    <path d="M 852.086 1448 C 848.971 1403 846.893 1318 848.971 1260 C 852.086 1165 853.125 1169 855.202 1302 L 857.279 1449 L 913.362 1430 C 944.519 1420 995.409 1409 1027.605 1405 L 1085.765 1398 L 1085.765 1444 C 1085.765 1473 1080.572 1492 1073.302 1494 C 1066.032 1496 1027.605 1503 987.101 1509 C 947.635 1515 901.938 1523 886.359 1526 L 859.356 1532 L 852.086 1448 Z M 1000.602 1469 C 1029.682 1458 1031.759 1436 1001.641 1445 C 987.101 1450 981.908 1448 986.062 1442 C 992.293 1432 878.051 1456 867.665 1467 C 864.549 1470 888.436 1470 919.593 1466 C 974.638 1460 975.676 1461 950.751 1475 L 924.786 1491 L 950.751 1484 C 965.291 1480 987.101 1474 1000.602 1469 Z" style=""/>
    <path d="M 1212.471 1498 C 1205.201 1491 1200.008 1476 1200.008 1464 C 1200.008 1443 1197.931 1442 1166.774 1451 C 1148.079 1457 1124.192 1466 1112.768 1471 C 1098.228 1479 1096.151 1479 1102.382 1468 C 1107.575 1461 1109.652 1444 1107.575 1431 C 1106.536 1418 1110.691 1403 1118.999 1399 C 1137.694 1387 1249.859 1388 1257.129 1400 C 1260.245 1406 1272.708 1410 1285.171 1410 C 1309.058 1410 1407.722 1459 1407.722 1471 C 1407.722 1483 1305.942 1510 1262.322 1510 C 1241.551 1510 1219.741 1505 1212.471 1498 Z M 1329.829 1460 C 1333.984 1454 1317.366 1450 1286.209 1451 C 1248.821 1451 1241.551 1454 1257.129 1460 C 1286.209 1472 1322.559 1472 1329.829 1460 Z M 1158.465 1430 C 1177.159 1418 1160.542 1418 1132.501 1430 C 1118.999 1436 1116.922 1439 1127.308 1439 C 1135.616 1439 1150.156 1435 1158.465 1430 Z M 1229.088 1413 C 1218.702 1411 1202.085 1411 1192.738 1413 C 1182.352 1416 1190.661 1418 1210.394 1418 C 1230.126 1418 1238.435 1416 1229.088 1413 Z" style=""/>
    <path d="M 1347.485 1393 C 1302.826 1372 1305.942 1364 1355.794 1368 C 1381.758 1371 1397.336 1377 1397.336 1385 C 1397.336 1407 1382.796 1410 1347.485 1393 Z" style=""/>
    <path d="M 888.436 1390 C 888.436 1385 891.552 1381 896.745 1381 C 921.671 1385 950.751 1378 964.252 1365 C 972.561 1357 1000.602 1348 1025.528 1345 L 1070.186 1340 L 1031.759 1351 C 1009.949 1357 992.293 1366 992.293 1371 C 992.293 1379 927.902 1400 901.938 1400 C 894.668 1400 888.436 1396 888.436 1390 Z" style=""/>
    <path d="M 1014.103 1376 C 1026.566 1366 1076.418 1360 1070.186 1370 C 1067.071 1375 1051.492 1380 1036.952 1380 C 1021.373 1380 1012.026 1378 1014.103 1376 Z" style=""/>
    <path d="M 878.051 1364 C 878.051 1361 892.591 1354 909.208 1349 C 926.863 1343 940.365 1334 940.365 1329 C 940.365 1323 932.056 1324 920.632 1330 C 894.668 1343 869.742 1344 884.282 1331 C 894.668 1321 1015.142 1290 1045.261 1290 C 1067.071 1290 1071.225 1305 1052.531 1316 C 1046.299 1320 1037.991 1318 1035.913 1312 C 1031.759 1300 973.599 1322 931.018 1352 C 907.131 1369 878.051 1376 878.051 1364 Z" style=""/>
    <path d="M 1156.388 1353 C 1174.044 1351 1205.201 1351 1223.895 1353 C 1241.551 1355 1227.011 1357 1189.622 1357 C 1152.234 1357 1137.694 1355 1156.388 1353 Z" style=""/>
    <path d="M 1293.479 1341 C 1270.631 1337 1261.284 1332 1269.592 1327 C 1282.055 1320 1366.179 1336 1366.179 1345 C 1366.179 1351 1342.292 1350 1293.479 1341 Z" style=""/>
    <path d="M 1149.118 1329 C 1157.426 1324 1184.429 1321 1210.394 1321 C 1265.438 1322 1256.091 1327 1185.468 1333 C 1154.311 1336 1140.809 1334 1149.118 1329 Z" style=""/>
    <path d="M 400.307 1320 C 431.465 1316 476.123 1310 498.972 1306 L 540.515 1300 L 509.357 1315 C 490.663 1323 450.159 1329 410.693 1328 L 343.186 1327 L 400.307 1320 Z" style=""/>
    <path d="M 1319.444 1308 C 1296.595 1303 1246.744 1300 1208.316 1303 C 1160.542 1306 1137.694 1304 1137.694 1296 C 1137.694 1288 1165.735 1287 1233.242 1292 C 1286.209 1295 1340.215 1299 1353.716 1299 C 1366.179 1300 1376.565 1305 1376.565 1310 C 1376.565 1321 1375.526 1321 1319.444 1308 Z" style=""/>
    <path d="M 879.089 1296 C 884.282 1290 1034.875 1240 1046.299 1240 C 1050.453 1240 1054.608 1243 1054.608 1248 C 1054.608 1252 1020.335 1265 979.831 1278 C 910.246 1298 868.703 1306 879.089 1296 Z" style=""/>
    <path d="M 879.089 1255 C 883.243 1237 906.092 1227 995.409 1206 C 1048.376 1194 1023.451 1216 964.252 1234 C 931.018 1244 897.783 1257 889.475 1263 C 879.089 1272 875.973 1270 879.089 1255 Z" style=""/>
    <path d="M 1158.465 1258 C 1158.465 1248 1270.631 1250 1303.865 1260 C 1320.482 1265 1299.711 1268 1244.666 1267 C 1196.892 1266 1158.465 1262 1158.465 1258 Z" style=""/>
    <path d="M 481.316 1253 C 487.547 1251 500.01 1251 507.28 1253 C 513.512 1256 508.319 1258 493.779 1258 C 479.239 1258 474.046 1256 481.316 1253 Z" style=""/>
    <path d="M 363.957 1230 C 357.726 1220 408.616 1205 483.393 1195 C 517.666 1191 525.975 1192 514.55 1199 C 506.242 1205 485.47 1210 469.892 1210 C 454.313 1210 425.233 1216 405.5 1224 C 385.767 1232 367.073 1235 363.957 1230 Z" style=""/>
    <path d="M 1147.041 1217 C 1151.195 1213 1192.738 1206 1240.512 1202 C 1313.212 1195 1327.752 1196 1335.022 1209 C 1342.292 1223 1330.868 1225 1241.551 1225 C 1184.429 1225 1141.848 1222 1147.041 1217 Z" style=""/>
    <path d="M 1044.222 1210 C 1044.222 1205 1051.492 1200 1060.839 1200 C 1069.148 1200 1073.302 1205 1070.186 1210 C 1067.071 1216 1059.801 1220 1053.569 1220 C 1048.376 1220 1044.222 1216 1044.222 1210 Z" style=""/>
    <path d="M 878.051 1206 C 878.051 1202 1046.299 1150 1058.762 1150 C 1061.878 1150 1061.878 1156 1058.762 1164 C 1055.646 1172 1045.261 1178 1035.913 1178 C 1026.566 1178 990.216 1185 955.943 1194 C 892.591 1210 878.051 1213 878.051 1206 Z" style=""/>
    <path d="M 361.88 1194 C 367.073 1189 374.343 1185 377.459 1185 C 381.613 1184 402.385 1178 423.156 1171 C 444.966 1164 473.007 1160 485.47 1162 C 504.165 1165 501.049 1168 467.815 1177 C 398.23 1196 352.533 1203 361.88 1194 Z" style=""/>
    <path d="M 1152.234 1181 C 1142.886 1171 1162.619 1160 1188.584 1160 C 1208.316 1160 1221.818 1153 1230.126 1138 L 1242.589 1115 L 1237.396 1138 C 1234.281 1155 1238.435 1163 1255.052 1169 C 1272.708 1176 1263.361 1179 1217.664 1181 C 1184.429 1183 1155.349 1183 1152.234 1181 Z" style=""/>
    <path d="M 337.993 1168 C 360.842 1147 417.963 1130 466.776 1131 L 509.357 1132 L 467.815 1141 C 420.04 1152 360.842 1169 337.993 1177 C 324.492 1183 324.492 1181 337.993 1168 Z" style=""/>
    <path d="M 878.051 1171 C 878.051 1165 895.706 1153 917.516 1144 C 956.982 1127 1067.071 1099 1072.263 1104 C 1074.341 1105 1034.875 1122 983.985 1141 C 934.133 1160 890.513 1176 886.359 1178 C 881.166 1180 878.051 1177 878.051 1171 Z" style=""/>
    <path d="M 536.36 1154 C 536.36 1143 539.476 1140 542.592 1148 C 545.707 1155 544.669 1164 541.553 1167 C 538.437 1171 535.322 1165 536.36 1154 Z" style=""/>
    <path d="M 850.009 1105 C 850.009 1078 852.086 1067 854.163 1083 C 856.241 1098 856.241 1120 854.163 1133 C 852.086 1145 850.009 1133 850.009 1105 Z" style=""/>
    <path d="M 878.051 1120 C 878.051 1108 927.902 1088 944.519 1093 C 950.751 1095 941.403 1104 922.709 1113 C 884.282 1133 878.051 1134 878.051 1120 Z" style=""/>
    <path d="M 509.357 1110 C 492.74 1103 491.702 1101 506.242 1101 C 515.589 1100 527.013 1105 530.129 1110 C 537.399 1121 537.399 1121 509.357 1110 Z" style=""/>
    <path d="M 996.448 1093 C 1007.872 1081 1075.379 1062 1075.379 1070 C 1075.379 1075 1060.839 1083 1043.183 1089 C 1005.795 1101 985.023 1103 996.448 1093 Z" style=""/>
    <path d="M 1782.647 984 C 1763.952 921 1729.68 828 1707.87 777 C 1686.059 726 1667.365 678 1667.365 670 C 1667.365 652 1720.332 709 1762.914 773 L 1795.11 822 L 1817.958 794 C 1831.46 778 1849.115 741 1859.501 712 C 1880.272 648 1876.118 640 1796.148 609 C 1735.911 584 1728.641 573 1760.837 545 C 1785.762 523 1972.705 512 1995.554 531 C 2025.673 555 2012.171 595 1960.242 642 C 1932.201 666 1898.967 707 1886.504 732 C 1873.002 757 1851.192 791 1838.73 806 C 1816.92 832 1811.727 833 1793.032 823 C 1781.608 816 1770.184 810 1768.107 810 C 1766.03 810 1777.454 865 1794.071 933 C 1833.537 1096 1826.267 1127 1782.647 984 Z" style=""/>
    <path d="M 888.436 1079 C 888.436 1074 900.899 1068 917.516 1064 C 950.751 1057 995.409 1045 1042.145 1031 C 1082.649 1019 1086.803 1033 1047.338 1049 C 998.525 1067 888.436 1089 888.436 1079 Z" style=""/>
    <path d="M 535.322 1041 C 535.322 1035 575.826 1019 626.716 1005 C 676.568 991 732.65 974 751.345 968 C 770.039 963 788.733 960 790.81 963 C 797.042 969 730.573 993 647.488 1015 C 614.253 1024 585.173 1036 582.058 1041 C 573.749 1053 535.322 1053 535.322 1041 Z" style=""/>
    <path d="M 888.436 1035 C 888.436 1026 902.976 1018 927.902 1015 C 948.673 1011 982.946 1004 1002.679 999 C 1048.376 988 1082.649 987 1070.186 998 C 1063.955 1003 1029.682 1012 992.293 1019 C 954.905 1026 920.632 1036 915.439 1041 C 899.861 1054 888.436 1052 888.436 1035 Z" style=""/>
    <path d="M 535.322 963 C 535.322 934 539.476 920 543.63 928 C 548.823 935 561.286 938 572.71 935 C 592.443 929 592.443 929 572.71 944 C 543.63 966 556.093 964 615.292 936 C 668.259 910 760.692 891 750.306 908 C 746.152 913 722.265 920 696.3 923 C 670.336 927 624.639 943 594.52 960 C 539.476 991 534.283 997 581.019 980 C 616.33 968 616.33 983 582.058 998 C 539.476 1017 535.322 1013 535.322 963 Z" style=""/>
    <path d="M 848.971 980 C 848.971 966 851.048 961 854.163 968 C 856.241 974 856.241 986 854.163 993 C 851.048 999 848.971 994 848.971 980 Z" style=""/>
    <path d="M 888.436 981 C 888.436 970 1010.988 913 1048.376 906 C 1093.035 898 1078.495 918 1031.759 930 C 1006.833 937 967.368 953 943.481 966 C 895.706 992 888.436 994 888.436 981 Z" style=""/>
    <path d="M 966.329 983 C 972.561 977 998.525 966 1026.566 957 C 1064.993 944 1075.379 944 1075.379 954 C 1075.379 962 1057.723 970 1034.875 974 C 1012.026 977 985.023 983 974.638 986 C 962.175 991 959.059 990 966.329 983 Z" style=""/>
    <path d="M 405.5 955 C 408.616 944 420.04 906 428.349 870 C 449.12 788 464.699 751 458.467 800 C 447.043 880 434.58 928 416.925 951 C 401.346 970 399.269 971 405.5 955 Z" style=""/>
    <path d="M 439.773 954 C 446.005 943 457.429 929 464.699 923 C 481.316 911 523.897 895 509.357 907 C 504.165 911 483.393 929 463.66 945 C 436.657 968 431.465 970 439.773 954 Z" style=""/>
    <path d="M 888.436 936 C 888.436 919 948.673 874 997.486 854 C 1046.299 835 1052.531 836 1047.338 864 C 1043.183 883 1033.836 889 1003.718 894 C 981.908 897 947.635 911 926.863 925 C 899.861 942 888.436 945 888.436 936 Z" style=""/>
    <path d="M 1161.581 932 C 1171.966 921 1195.854 906 1213.509 899 C 1232.204 892 1249.859 882 1252.975 877 C 1257.129 872 1262.322 872 1266.476 878 C 1269.592 884 1262.322 892 1249.859 896 C 1236.358 900 1207.278 914 1184.429 928 C 1149.118 949 1146.002 950 1161.581 932 Z" style=""/>
    <path d="M 483.393 880 C 498.972 866 510.396 862 512.473 870 C 517.666 884 515.589 886 483.393 894 L 457.429 901 L 483.393 880 Z" style=""/>
    <path d="M 888.436 855 C 888.436 847 898.822 834 911.285 826 C 923.748 817 929.979 810 924.786 810 C 915.439 809 1031.759 760 1041.106 760 C 1043.183 760 1044.222 769 1044.222 780 C 1044.222 795 1030.721 806 995.409 821 C 967.368 832 933.095 847 917.516 855 C 892.591 866 888.436 866 888.436 855 Z" style=""/>
    <path d="M 1278.939 861 C 1275.824 856 1285.171 849 1300.749 845 C 1317.366 842 1332.945 833 1337.099 827 C 1342.292 819 1345.408 823 1345.408 836 C 1345.408 850 1337.099 860 1322.559 864 C 1290.364 872 1285.171 871 1278.939 861 Z" style=""/>
    <path d="M 1122.115 840 C 1112.768 825 1111.729 826 1183.391 796 C 1216.625 782 1259.206 770 1276.862 770 C 1294.518 770 1316.328 765 1324.636 759 C 1350.601 742 1218.702 760 1189.622 778 C 1161.581 795 1075.379 811 1075.379 800 C 1075.379 796 1096.151 789 1122.115 786 C 1152.234 781 1168.851 774 1168.851 764 C 1168.851 756 1179.236 750 1192.738 750 C 1205.201 750 1244.666 744 1281.016 736 L 1345.408 723 L 1345.408 761 C 1345.408 806 1336.061 812 1241.551 829 C 1204.162 836 1163.658 844 1152.234 847 C 1139.771 849 1126.269 846 1122.115 840 Z" style=""/>
    <path d="M 888.436 780 C 888.436 769 935.172 745 991.255 725 C 1018.258 715 1022.412 711 1006.833 711 C 994.371 710 964.252 717 940.365 725 C 888.436 743 882.205 740 898.822 710 C 917.516 676 1033.836 632 1033.836 658 C 1033.836 663 1006.833 675 974.638 685 C 941.403 695 920.632 705 927.902 707 C 935.172 710 955.943 707 973.599 701 C 1022.412 684 1035.913 687 1031.759 712 C 1029.682 728 1010.988 740 959.059 761 C 919.593 776 888.436 785 888.436 780 Z" style=""/>
    <path d="M 1067.071 741 C 1068.109 707 1084.726 697 1200.008 668 C 1359.948 628 1344.369 628 1341.254 664 C 1339.176 681 1337.099 698 1336.061 701 C 1336.061 704 1278.939 717 1210.394 730 C 1142.886 743 1088.881 757 1091.996 762 C 1095.112 766 1089.919 770 1081.611 770 C 1071.225 770 1067.071 760 1067.071 741 Z M 1128.346 719 C 1140.809 713 1192.738 700 1244.666 690 C 1332.945 672 1335.022 671 1275.824 676 C 1204.162 682 1110.691 705 1101.343 720 C 1093.035 733 1102.382 733 1128.346 719 Z" style=""/>
    <path d="M 1125.231 763 C 1131.462 761 1143.925 761 1151.195 763 C 1157.426 766 1152.234 768 1137.694 768 C 1123.153 768 1117.961 766 1125.231 763 Z" style=""/>
    <path d="M 656.835 749 C 664.105 742 672.413 739 675.529 742 C 678.645 745 673.452 751 663.066 754 C 648.526 760 647.488 759 656.835 749 Z" style=""/>
    <path d="M 691.108 746 C 691.108 744 716.033 728 746.152 711 C 775.232 694 793.926 680 786.656 680 C 779.386 680 776.27 675 779.386 670 C 783.54 664 790.81 662 796.003 665 C 810.543 674 807.428 700 791.849 700 C 784.579 700 769 707 757.576 715 C 738.882 730 739.92 731 773.155 724 C 799.119 720 806.389 721 800.158 730 C 796.003 737 779.386 740 761.73 738 C 745.113 735 729.535 737 726.419 742 C 721.226 750 691.108 754 691.108 746 Z" style=""/>
    <path d="M 647.488 693 C 654.758 690 664.105 691 667.22 694 C 671.375 697 665.143 700 653.719 699 C 642.295 699 639.179 696 647.488 693 Z" style=""/>
    <path d="M 566.479 683 C 566.479 676 599.713 651 611.138 650 C 628.793 650 616.33 668 592.443 678 C 577.903 684 566.479 687 566.479 683 Z" style=""/>
    <path d="M 887.398 658 C 893.629 642 913.362 631 956.982 618 C 1030.721 597 1040.068 596 1024.489 614 C 1018.258 621 993.332 631 969.445 634 C 944.519 638 920.632 649 912.323 660 C 892.591 687 877.012 685 887.398 658 Z" style=""/>
    <path d="M 1064.993 672 C 1064.993 659 1102.382 650 1148.079 651 L 1184.429 652 L 1148.079 660 C 1128.346 665 1101.343 671 1088.881 675 C 1074.341 679 1064.993 678 1064.993 672 Z" style=""/>
    <path d="M 695.262 651 C 706.686 639 708.763 631 700.455 623 C 693.185 616 697.339 613 716.033 613 C 730.573 613 743.036 616 743.036 621 C 743.036 626 748.229 630 753.422 630 C 759.653 630 763.808 623 763.808 615 C 763.808 607 771.078 600 779.386 600 C 796.003 600 799.119 609 786.656 626 C 774.193 645 749.268 647 734.728 631 C 722.265 617 721.226 618 726.419 641 C 731.612 664 729.535 668 705.648 668 C 681.76 668 680.722 666 695.262 651 Z" style=""/>
    <path d="M 628.793 650 C 628.793 638 670.336 616 678.645 624 C 681.76 628 675.529 637 664.105 645 C 641.256 662 628.793 664 628.793 650 Z" style=""/>
    <path d="M 1643.478 640 C 1640.362 632 1636.208 614 1634.131 600 C 1632.054 586 1624.784 576 1617.514 578 C 1607.128 580 1598.819 545 1604.012 517 C 1605.051 513 1607.128 472 1610.244 427 C 1615.437 328 1609.205 320 1513.657 289 C 1451.342 269 1437.841 268 1369.295 278 C 1287.248 291 1259.206 286 1264.399 262 C 1268.554 239 1342.292 228 1454.458 233 C 1566.624 238 1626.861 263 1699.561 337 C 1774.338 412 1774.338 413 1723.448 486 C 1698.522 522 1673.597 570 1667.365 593 C 1650.748 654 1649.709 656 1643.478 640 Z" style=""/>
    <path d="M 1078.495 623 C 1079.533 606 1090.958 601 1148.079 592 C 1270.631 572 1338.138 567 1330.868 578 C 1327.752 583 1290.364 591 1249.859 594 C 1133.539 604 1096.151 611 1096.151 622 C 1096.151 627 1104.459 629 1114.845 626 C 1124.192 624 1169.889 618 1215.586 615 C 1261.284 612 1306.981 607 1317.366 604 C 1326.714 601 1335.022 603 1335.022 608 C 1335.022 621 1291.402 628 1174.044 636 C 1080.572 643 1076.418 642 1078.495 623 Z" style=""/>
    <path d="M 904.015 609 C 908.169 604 916.478 600 922.709 600 C 929.979 600 960.098 589 990.216 575 C 1034.875 555 1043.183 554 1034.875 567 C 1029.682 577 996.448 592 962.175 601 C 926.863 611 900.899 614 904.015 609 Z" style=""/>
    <path d="M 888.436 576 C 896.745 568 937.249 550 976.715 535 C 1039.029 513 1046.299 512 1028.643 528 C 1007.872 546 907.131 590 885.321 590 C 879.089 590 880.128 584 888.436 576 Z" style=""/>
    <path d="M 1137.694 563 C 1157.426 562 1208.316 555 1250.898 549 C 1297.634 542 1330.868 542 1337.099 548 C 1347.485 558 1219.741 571 1143.925 568 C 1103.421 567 1103.421 567 1137.694 563 Z" style=""/>
    <path d="M 1142.886 530 C 1154.311 525 1187.545 522 1215.586 522 L 1267.515 522 L 1225.972 531 C 1203.124 535 1170.928 539 1153.272 539 C 1126.269 539 1125.231 537 1142.886 530 Z" style=""/>
    <path d="M 1100.305 505 C 1116.922 496 1161.581 485 1198.969 480 C 1236.358 475 1285.171 467 1306.981 464 C 1336.061 459 1345.408 461 1345.408 471 C 1345.408 482 1328.791 486 1285.171 487 C 1251.936 487 1200.008 495 1168.851 504 C 1138.732 513 1103.421 520 1091.996 520 C 1073.302 520 1075.379 517 1100.305 505 Z" style=""/>
    <path d="M 1291.402 503 C 1297.634 501 1310.096 501 1317.366 503 C 1323.598 506 1318.405 508 1303.865 508 C 1289.325 508 1284.132 506 1291.402 503 Z" style=""/>
    <path d="M 1382.796 365 C 1354.755 340 1336.061 320 1342.292 320 C 1363.064 320 1449.265 380 1449.265 395 C 1449.265 418 1437.841 413 1382.796 365 Z" style=""/>
    <path d="M 1781.608 393 C 1781.608 387 1759.798 359 1733.834 331 C 1683.982 278 1621.668 237 1555.199 214 C 1533.389 207 1525.081 201 1535.467 200 C 1565.585 200 1659.057 246 1705.792 285 C 1751.49 322 1798.225 387 1787.84 397 C 1784.724 401 1781.608 399 1781.608 393 Z" style=""/>
  </g>
</svg>